<mxfile host="65bd71144e">
    <diagram id="fwO0KwX-CpVdSd_tHmTz" name="Page-1">
        <mxGraphModel dx="1140" dy="622" grid="1" gridSize="10" guides="1" tooltips="1" connect="1" arrows="1" fold="1" page="1" pageScale="1" pageWidth="850" pageHeight="1100" math="0" shadow="0">
            <root>
                <mxCell id="0"/>
                <mxCell id="1" parent="0"/>
                <mxCell id="7" value="&amp;nbsp; USER:&lt;br&gt;&amp;nbsp;user_id: PK&lt;br&gt;&amp;nbsp;first_name:&lt;br&gt;&amp;nbsp;last_name:&lt;br&gt;email:&lt;br&gt;phone:&lt;br&gt;DOB" style="rounded=1;whiteSpace=wrap;html=1;" vertex="1" parent="1">
                    <mxGeometry x="360" y="230" width="120" height="200" as="geometry"/>
                </mxCell>
                <mxCell id="8" value="TRIPs:&lt;br&gt;&amp;nbsp;trip_id: PK&lt;br&gt;&amp;nbsp;user_id: FK&lt;br&gt;&amp;nbsp;trip_name:&lt;br&gt;start_date:&lt;br&gt;end_date:&lt;br&gt;totol_cost:&lt;br&gt;image:&amp;nbsp;" style="rounded=1;whiteSpace=wrap;html=1;" vertex="1" parent="1">
                    <mxGeometry x="720" y="225" width="120" height="210" as="geometry"/>
                </mxCell>
                <mxCell id="27" style="edgeStyle=none;html=1;exitX=1;exitY=0.75;exitDx=0;exitDy=0;entryX=0;entryY=0.25;entryDx=0;entryDy=0;" edge="1" parent="1" source="9" target="8">
                    <mxGeometry relative="1" as="geometry"/>
                </mxCell>
                <mxCell id="9" value="DESTINATION:&lt;br&gt;destination_id: PK&lt;br&gt;&amp;nbsp;trip_id: FK&lt;br&gt;vehicle_id: FK&lt;br&gt;&amp;nbsp;destination_name&lt;br&gt;image:&amp;nbsp;&lt;br&gt;&amp;nbsp;description:&lt;br&gt;&amp;nbsp;acctraction:&lt;br&gt;&amp;nbsp;temperator&lt;br&gt;best_time_to_visit" style="rounded=1;whiteSpace=wrap;html=1;" vertex="1" parent="1">
                    <mxGeometry x="120" width="130" height="215" as="geometry"/>
                </mxCell>
                <mxCell id="10" value="VEHICLE:&lt;br&gt;&amp;nbsp; vehicle_id: PK&lt;br&gt;&amp;nbsp;trip_id:&amp;nbsp; FK&lt;br&gt;&amp;nbsp; vehicle_name:&lt;br&gt;&amp;nbsp; price" style="rounded=1;whiteSpace=wrap;html=1;" vertex="1" parent="1">
                    <mxGeometry x="690" y="470" width="120" height="190" as="geometry"/>
                </mxCell>
                <mxCell id="11" value="HOTEL:&lt;br&gt;&amp;nbsp;hotel_id: PK&lt;br&gt;&amp;nbsp;destination_id: FK&lt;br&gt;&amp;nbsp;name:&lt;br&gt;address:&lt;br&gt;price_per_night:&lt;br&gt;image:&lt;br&gt;rating:&lt;br&gt;availabel_room&lt;br&gt;&amp;nbsp;" style="rounded=1;whiteSpace=wrap;html=1;" vertex="1" parent="1">
                    <mxGeometry x="480" y="20" width="120" height="160" as="geometry"/>
                </mxCell>
                <mxCell id="12" value="REVIEW:&lt;br&gt;&amp;nbsp;review_id: PK&lt;br&gt;&amp;nbsp;user_id: FK&lt;br&gt;&amp;nbsp;destination_id: FK&lt;br&gt;rating:&lt;br&gt;text:&lt;br&gt;date_post" style="rounded=1;whiteSpace=wrap;html=1;" vertex="1" parent="1">
                    <mxGeometry x="80" y="350" width="120" height="130" as="geometry"/>
                </mxCell>
                <mxCell id="14" value="BOOKING:&lt;br&gt;&amp;nbsp; booking_id: PK&lt;br&gt;&amp;nbsp; user_id: FK&lt;br&gt;&amp;nbsp; hotel_id: FK&lt;br&gt;&amp;nbsp; vehicle_id:&lt;br&gt;&amp;nbsp; trip_id: FK&lt;br&gt;&amp;nbsp; booking_data" style="rounded=1;whiteSpace=wrap;html=1;" vertex="1" parent="1">
                    <mxGeometry x="360" y="510" width="120" height="130" as="geometry"/>
                </mxCell>
                <mxCell id="18" value="" style="endArrow=classic;startArrow=classic;html=1;entryX=0;entryY=0.5;entryDx=0;entryDy=0;exitX=1;exitY=0.5;exitDx=0;exitDy=0;" edge="1" parent="1" source="7" target="8">
                    <mxGeometry width="50" height="50" relative="1" as="geometry">
                        <mxPoint x="400" y="380" as="sourcePoint"/>
                        <mxPoint x="450" y="330" as="targetPoint"/>
                    </mxGeometry>
                </mxCell>
                <mxCell id="19" value="" style="endArrow=classic;html=1;exitX=0.5;exitY=1;exitDx=0;exitDy=0;" edge="1" parent="1" source="7" target="14">
                    <mxGeometry width="50" height="50" relative="1" as="geometry">
                        <mxPoint x="400" y="380" as="sourcePoint"/>
                        <mxPoint x="450" y="330" as="targetPoint"/>
                    </mxGeometry>
                </mxCell>
                <mxCell id="20" value="" style="endArrow=classic;startArrow=classic;html=1;exitX=0.5;exitY=1;exitDx=0;exitDy=0;entryX=0.5;entryY=0;entryDx=0;entryDy=0;" edge="1" parent="1" source="8" target="10">
                    <mxGeometry width="50" height="50" relative="1" as="geometry">
                        <mxPoint x="400" y="380" as="sourcePoint"/>
                        <mxPoint x="450" y="330" as="targetPoint"/>
                    </mxGeometry>
                </mxCell>
                <mxCell id="21" value="" style="endArrow=classic;startArrow=classic;html=1;exitX=1;exitY=0.5;exitDx=0;exitDy=0;entryX=0;entryY=0.5;entryDx=0;entryDy=0;" edge="1" parent="1" source="9" target="11">
                    <mxGeometry width="50" height="50" relative="1" as="geometry">
                        <mxPoint x="400" y="370" as="sourcePoint"/>
                        <mxPoint x="450" y="320" as="targetPoint"/>
                    </mxGeometry>
                </mxCell>
                <mxCell id="22" value="" style="endArrow=classic;startArrow=classic;html=1;exitX=1;exitY=0.5;exitDx=0;exitDy=0;entryX=0;entryY=0.5;entryDx=0;entryDy=0;" edge="1" parent="1" source="12" target="7">
                    <mxGeometry width="50" height="50" relative="1" as="geometry">
                        <mxPoint x="400" y="370" as="sourcePoint"/>
                        <mxPoint x="350" y="335" as="targetPoint"/>
                    </mxGeometry>
                </mxCell>
                <mxCell id="23" value="" style="endArrow=classic;html=1;exitX=0.5;exitY=1;exitDx=0;exitDy=0;entryX=0.5;entryY=0;entryDx=0;entryDy=0;" edge="1" parent="1" source="9" target="12">
                    <mxGeometry width="50" height="50" relative="1" as="geometry">
                        <mxPoint x="400" y="370" as="sourcePoint"/>
                        <mxPoint x="450" y="320" as="targetPoint"/>
                    </mxGeometry>
                </mxCell>
                <mxCell id="24" value="" style="endArrow=classic;startArrow=classic;html=1;entryX=0.5;entryY=1;entryDx=0;entryDy=0;exitX=1;exitY=0.5;exitDx=0;exitDy=0;" edge="1" parent="1" source="14" target="11">
                    <mxGeometry width="50" height="50" relative="1" as="geometry">
                        <mxPoint x="400" y="370" as="sourcePoint"/>
                        <mxPoint x="450" y="320" as="targetPoint"/>
                        <Array as="points">
                            <mxPoint x="580" y="410"/>
                        </Array>
                    </mxGeometry>
                </mxCell>
                <mxCell id="25" value="" style="endArrow=classic;startArrow=classic;html=1;exitX=0;exitY=0.5;exitDx=0;exitDy=0;entryX=1;entryY=0.75;entryDx=0;entryDy=0;" edge="1" parent="1" source="10" target="14">
                    <mxGeometry width="50" height="50" relative="1" as="geometry">
                        <mxPoint x="400" y="370" as="sourcePoint"/>
                        <mxPoint x="450" y="320" as="targetPoint"/>
                    </mxGeometry>
                </mxCell>
                <mxCell id="26" value="" style="endArrow=classic;startArrow=classic;html=1;exitX=0;exitY=0.75;exitDx=0;exitDy=0;entryX=1;entryY=0.638;entryDx=0;entryDy=0;entryPerimeter=0;" edge="1" parent="1" source="8" target="14">
                    <mxGeometry width="50" height="50" relative="1" as="geometry">
                        <mxPoint x="400" y="370" as="sourcePoint"/>
                        <mxPoint x="450" y="320" as="targetPoint"/>
                    </mxGeometry>
                </mxCell>
            </root>
        </mxGraphModel>
    </diagram>
</mxfile>